<?xml version="1.0" encoding="UTF-8" standalone="no"?><!DOCTYPE svg PUBLIC "-//W3C//DTD SVG 1.1//EN" "http://www.w3.org/Graphics/SVG/1.1/DTD/svg11.dtd"><svg width="100%" height="100%" viewBox="0 0 4284 1561" version="1.1" xmlns="http://www.w3.org/2000/svg" xmlns:xlink="http://www.w3.org/1999/xlink" xml:space="preserve" xmlns:serif="http://www.serif.com/" style="fill-rule:evenodd;clip-rule:evenodd;stroke-linejoin:round;stroke-miterlimit:2;"><g id="imagotipo"><g id="Captura-de-pantalla-2026-05-13-132932.png" serif:id="Captura de pantalla 2026-05-13 132932.png"><path d="M438.801,961.901l3.155,0.113c-0.033,2.504 -2.451,10.595 -2.483,13.1c-15.242,97.274 -11.451,98.562 -13.893,100.462c-120.478,-0.221 -271.196,20.992 -373.087,-126.149c-79.899,-115.382 -63.645,-263.482 15.373,-357.061c110.778,-131.192 239.257,-104.222 401.728,-106.197c10.69,-0.13 5.569,-7.185 6.976,-187.422c1.804,-230.993 216.679,-340.796 384.791,-283.984c235.36,79.537 201.019,338.356 200.586,367.646c-0.066,4.442 -28.817,11.564 -31.435,12.213c-38.874,9.63 -38.383,10.032 -76.877,20.045c-8.474,2.204 -4.133,-5.068 -5.361,-109.319c-2.414,-204.989 -230.748,-250.304 -326.082,-113.929c-30.086,43.038 -31.124,109.702 -30.361,176.65c0.791,69.456 3.825,139.261 -4.384,185.772c-10.049,56.937 -53.99,43.896 -269.713,45.01c-211.938,1.094 -223.676,185.188 -186.492,260.825c59.233,120.485 169.92,102.501 307.559,102.226Z" style="fill:#1a82c4;"/><path d="M599.139,1332.286c1.281,2.619 3.549,7.787 7.015,13.913c3.742,6.614 8.652,14.115 8.76,14.262c112.056,153.335 266.653,77.48 312.145,-9.871c41.011,-78.747 10.465,-294.974 21.65,-338.936c16.466,-64.721 77.554,-47.804 295.572,-49.495c113.046,-0.877 175.678,-89.197 181.765,-166.112c9.454,-119.471 -85.174,-165.562 -80.569,-173.8c50.611,-90.553 45.196,-101.093 52.675,-96.469c211.708,130.904 175.66,411.547 -6.901,513.818c-126.91,71.096 -328.876,14.872 -328.936,42.664c-0.485,225.269 20.324,329.16 -154.884,444.856c-14.079,4.086 -10.382,1.579 -13.659,3.041c-87.55,39.065 -217.617,-14.412 -273.758,-140.875c-6.377,-14.364 -15.031,-32.62 -20.874,-56.996Z" style="fill:#00c03a;"/><path d="M1147.198,566.561c0.299,-0.081 -2.644,2.758 -6.992,6.113c-53.953,41.631 -438.439,331.048 -496.871,483.007c-5.085,6.597 -49.876,92.287 -55.134,182.107c-2.007,34.283 10.976,96.92 12.753,100.094c2.245,9.821 11.552,30.873 13.262,35.493c2.574,6.957 3.848,9.376 7.68,18.008c56.141,126.463 185.118,174.16 273.621,137.305c1.168,-0.486 9.207,-3.769 9.207,-3.769c0,0 7.933,-3.827 9.808,-4.806c8.949,-4.673 10.514,-5.07 10.514,-5.07c0,0 -2.961,2.074 -7.849,5.819c-3.498,2.68 -7.297,4.685 -8.914,5.684c-0.775,0.478 -7.994,4.768 -11.924,6.452c-225.112,96.419 -420.14,-72.988 -419.646,-263.697c0.199,-76.826 28.57,-306.174 402.726,-545c189.341,-120.857 204.679,-124.941 267.759,-157.741Z" style="fill:#1a82c4;"/><circle cx="1227.61" cy="211.933" r="94.138" style="fill:#00c03a;"/><path d="M1147.241,566.531c-200.953,79.776 -611.349,204.583 -708.909,597.04c-1.107,4.453 -11.5,59.68 -10.86,36.488c0.361,-13.079 -1.261,-20.865 -1.578,-28.289c-0.605,-14.176 -0.517,-23.086 -0.841,-37.303c-0.468,-20.562 0.457,-54.513 0.537,-59.317c-0.503,-4.163 3.396,-51.131 12.674,-102.071c0.669,-3.674 1.518,-6.646 2.199,-10.35c0,-0 2.23,-7.206 8.893,-32.467c126.597,-479.903 551.129,-435.768 833.982,-570.967c112.527,-53.786 140.64,-113.481 136.927,-95.757c-9.483,45.259 -15.23,84.352 -29.518,131.754c-175.428,582.019 -724.632,647.734 -747.413,660.388c56.422,-146.73 346.886,-386.271 465.783,-462.978c8.275,-5.339 17.714,-11.196 25.407,-16.417c0.806,-0.547 1.592,-1.086 2.356,-1.618c4.423,-3.077 8.092,-5.875 10.359,-8.137Z" style="fill:#00c03a;"/></g><g transform="matrix(764.419519,0,0,764.419519,1617.003727,1045.088494)"><path d="M0.031,-0.047l0.063,-0.119c0.035,0.021 0.066,0.035 0.092,0.043c0.026,0.008 0.054,0.011 0.083,0.011c0.038,0 0.066,-0.007 0.084,-0.022c0.019,-0.015 0.028,-0.035 0.028,-0.061c0,-0.025 -0.007,-0.044 -0.022,-0.057c-0.015,-0.013 -0.042,-0.025 -0.081,-0.034c-0.077,-0.018 -0.134,-0.044 -0.169,-0.076c-0.035,-0.033 -0.053,-0.078 -0.053,-0.136c0,-0.059 0.023,-0.109 0.068,-0.15c0.046,-0.041 0.109,-0.062 0.191,-0.062c0.034,0 0.068,0.004 0.101,0.012c0.033,0.008 0.065,0.019 0.095,0.034l-0.058,0.121c-0.027,-0.015 -0.052,-0.026 -0.076,-0.033c-0.024,-0.007 -0.046,-0.01 -0.067,-0.01c-0.032,0 -0.057,0.006 -0.076,0.019c-0.018,0.013 -0.027,0.031 -0.027,0.055c0,0.022 0.008,0.039 0.025,0.051c0.017,0.012 0.046,0.023 0.088,0.033c0.075,0.018 0.13,0.044 0.164,0.078c0.034,0.034 0.05,0.082 0.05,0.143c0,0.066 -0.023,0.119 -0.069,0.16c-0.046,0.041 -0.113,0.061 -0.201,0.061c-0.039,0 -0.08,-0.005 -0.122,-0.016c-0.042,-0.01 -0.079,-0.025 -0.112,-0.044Z" style="fill:#1a82c4;fill-rule:nonzero;"/></g><g transform="matrix(764.419519,0,0,764.419519,2053.708238,1045.088494)"><rect x="0.086" y="-0.7" width="0.153" height="0.7" style="fill:#1a82c4;fill-rule:nonzero;"/></g><g transform="matrix(764.419519,0,0,764.419519,2300.800875,1045.088494)"><path d="M0.031,-0.047l0.063,-0.119c0.035,0.021 0.066,0.035 0.092,0.043c0.026,0.008 0.054,0.011 0.083,0.011c0.038,0 0.066,-0.007 0.084,-0.022c0.019,-0.015 0.028,-0.035 0.028,-0.061c0,-0.025 -0.007,-0.044 -0.022,-0.057c-0.015,-0.013 -0.042,-0.025 -0.081,-0.034c-0.077,-0.018 -0.134,-0.044 -0.169,-0.076c-0.035,-0.033 -0.053,-0.078 -0.053,-0.136c0,-0.059 0.023,-0.109 0.068,-0.15c0.046,-0.041 0.109,-0.062 0.191,-0.062c0.034,0 0.068,0.004 0.101,0.012c0.033,0.008 0.065,0.019 0.095,0.034l-0.058,0.121c-0.027,-0.015 -0.052,-0.026 -0.076,-0.033c-0.024,-0.007 -0.046,-0.01 -0.067,-0.01c-0.032,0 -0.057,0.006 -0.076,0.019c-0.018,0.013 -0.027,0.031 -0.027,0.055c0,0.022 0.008,0.039 0.025,0.051c0.017,0.012 0.046,0.023 0.088,0.033c0.075,0.018 0.13,0.044 0.164,0.078c0.034,0.034 0.05,0.082 0.05,0.143c0,0.066 -0.023,0.119 -0.069,0.16c-0.046,0.041 -0.113,0.061 -0.201,0.061c-0.039,0 -0.08,-0.005 -0.122,-0.016c-0.042,-0.01 -0.079,-0.025 -0.112,-0.044Z" style="fill:#1a82c4;fill-rule:nonzero;"/></g><g transform="matrix(764.419519,0,0,764.419519,2737.505386,1045.088494)"><path d="M0.612,-0.037c-0.037,0.017 -0.073,0.03 -0.107,0.037c-0.035,0.008 -0.072,0.012 -0.113,0.012c-0.109,0 -0.195,-0.031 -0.257,-0.092c-0.062,-0.061 -0.094,-0.148 -0.094,-0.261c0,-0.107 0.034,-0.195 0.102,-0.266c0.068,-0.07 0.158,-0.105 0.27,-0.105c0.038,0 0.072,0.003 0.102,0.009c0.03,0.006 0.061,0.015 0.092,0.027l-0.047,0.123c-0.024,-0.01 -0.047,-0.016 -0.069,-0.021c-0.023,-0.004 -0.047,-0.007 -0.073,-0.007c-0.059,0 -0.11,0.021 -0.152,0.062c-0.042,0.041 -0.064,0.097 -0.064,0.167c0,0.072 0.019,0.128 0.056,0.169c0.037,0.041 0.088,0.061 0.153,0.061c0.019,0 0.041,-0.003 0.066,-0.009c0.025,-0.006 0.052,-0.015 0.079,-0.028l0.056,0.122Z" style="fill:#1a82c4;fill-rule:nonzero;"/></g><g transform="matrix(764.419519,0,0,764.419519,3205.189789,1045.088494)"><path d="M0.381,0.012c-0.1,0 -0.182,-0.033 -0.245,-0.098c-0.063,-0.065 -0.094,-0.15 -0.094,-0.255c0,-0.111 0.032,-0.2 0.096,-0.269c0.064,-0.068 0.149,-0.102 0.254,-0.102c0.1,0 0.18,0.033 0.242,0.098c0.062,0.065 0.092,0.152 0.092,0.259c0,0.11 -0.032,0.199 -0.096,0.266c-0.064,0.067 -0.147,0.101 -0.25,0.101Zm0.003,-0.132c0.056,0 0.1,-0.02 0.133,-0.06c0.033,-0.04 0.049,-0.095 0.049,-0.166c0,-0.074 -0.016,-0.131 -0.048,-0.173c-0.032,-0.041 -0.075,-0.062 -0.13,-0.062c-0.057,0 -0.102,0.021 -0.135,0.063c-0.034,0.042 -0.05,0.098 -0.05,0.168c0,0.071 0.017,0.126 0.05,0.168c0.033,0.041 0.077,0.062 0.131,0.062Z" style="fill:#1a82c4;fill-rule:nonzero;"/></g><g transform="matrix(764.419519,0,0,764.419519,3791.94149,1045.088494)"><path d="M0.238,-0.231l0,0.231l-0.153,-0l0,-0.7l0.244,0c0.087,0 0.153,0.019 0.197,0.057c0.044,0.038 0.066,0.095 0.066,0.171c0,0.072 -0.025,0.13 -0.076,0.174c-0.05,0.044 -0.118,0.067 -0.202,0.067l-0.077,0Zm0,-0.351l0,0.234l0.064,0c0.043,0 0.075,-0.01 0.097,-0.03c0.022,-0.02 0.032,-0.049 0.032,-0.089c0,-0.039 -0.011,-0.068 -0.032,-0.087c-0.021,-0.019 -0.054,-0.029 -0.096,-0.029l-0.064,0Z" style="fill:#1a82c4;fill-rule:nonzero;"/></g><g transform="matrix(764.419519,0,0,764.419519,4265.971173,1045.088494)"></g><g transform="matrix(207.030286,0,0,207.030286,1639.897652,1302.418326)"><path d="M0.035,-0.051l0.053,-0.092c0.032,0.02 0.061,0.034 0.089,0.042c0.027,0.008 0.058,0.012 0.091,0.012c0.04,0 0.071,-0.009 0.094,-0.026c0.023,-0.017 0.034,-0.042 0.034,-0.074c0,-0.029 -0.01,-0.052 -0.029,-0.069c-0.019,-0.017 -0.051,-0.032 -0.097,-0.046c-0.072,-0.021 -0.125,-0.047 -0.158,-0.078c-0.034,-0.031 -0.05,-0.074 -0.05,-0.128c0,-0.058 0.022,-0.106 0.065,-0.145c0.044,-0.038 0.103,-0.058 0.177,-0.058c0.033,0 0.065,0.004 0.097,0.011c0.032,0.008 0.063,0.019 0.094,0.034l-0.046,0.094c-0.026,-0.014 -0.052,-0.025 -0.076,-0.031c-0.025,-0.006 -0.049,-0.009 -0.074,-0.009c-0.037,0 -0.066,0.008 -0.087,0.024c-0.021,0.016 -0.032,0.039 -0.032,0.068c0,0.026 0.01,0.047 0.029,0.061c0.019,0.015 0.053,0.029 0.1,0.044c0.073,0.022 0.126,0.049 0.158,0.081c0.032,0.033 0.048,0.078 0.048,0.135c0,0.061 -0.022,0.112 -0.066,0.151c-0.044,0.039 -0.106,0.059 -0.187,0.059c-0.041,0 -0.08,-0.005 -0.119,-0.016c-0.039,-0.011 -0.075,-0.026 -0.108,-0.047Z" style="fill:#1a82c4;fill-rule:nonzero;"/></g><g transform="matrix(207.030286,0,0,207.030286,1755.543476,1302.418326)"><path d="M0.137,-0.602c-0.021,0 -0.039,-0.007 -0.052,-0.02c-0.014,-0.013 -0.021,-0.03 -0.021,-0.049c0,-0.02 0.007,-0.037 0.021,-0.05c0.014,-0.013 0.031,-0.02 0.052,-0.02c0.021,0 0.039,0.007 0.053,0.02c0.014,0.013 0.021,0.03 0.021,0.05c0,0.02 -0.007,0.037 -0.021,0.05c-0.014,0.013 -0.031,0.02 -0.053,0.02Zm0.057,0.602l-0.116,-0l0,-0.512l0.116,0l0,0.512Z" style="fill:#1a82c4;fill-rule:nonzero;"/></g><g transform="matrix(207.030286,0,0,207.030286,1813.265299,1302.418326)"><path d="M0.032,-0.04l0.05,-0.082c0.02,0.014 0.041,0.025 0.063,0.033c0.022,0.008 0.047,0.013 0.074,0.013c0.029,0 0.051,-0.005 0.067,-0.016c0.016,-0.01 0.024,-0.026 0.024,-0.047c0,-0.017 -0.007,-0.031 -0.02,-0.042c-0.013,-0.011 -0.036,-0.02 -0.068,-0.028c-0.064,-0.015 -0.108,-0.035 -0.134,-0.059c-0.026,-0.025 -0.038,-0.057 -0.038,-0.098c0,-0.047 0.018,-0.085 0.055,-0.114c0.036,-0.029 0.084,-0.044 0.142,-0.044c0.029,0 0.056,0.004 0.082,0.011c0.026,0.007 0.051,0.019 0.076,0.035l-0.046,0.079c-0.022,-0.014 -0.042,-0.023 -0.06,-0.029c-0.018,-0.006 -0.037,-0.009 -0.056,-0.009c-0.028,0 -0.049,0.005 -0.065,0.016c-0.015,0.01 -0.023,0.025 -0.023,0.043c0,0.019 0.007,0.033 0.022,0.042c0.015,0.009 0.041,0.018 0.077,0.027c0.056,0.013 0.096,0.032 0.122,0.057c0.026,0.025 0.039,0.059 0.039,0.101c0,0.049 -0.018,0.089 -0.054,0.118c-0.036,0.029 -0.085,0.044 -0.147,0.044c-0.033,0 -0.065,-0.004 -0.095,-0.013c-0.03,-0.009 -0.059,-0.022 -0.087,-0.039Z" style="fill:#1a82c4;fill-rule:nonzero;"/></g><g transform="matrix(207.030286,0,0,207.030286,1906.469363,1302.418326)"><path d="M0.359,-0.007c-0.015,0.006 -0.03,0.011 -0.047,0.014c-0.016,0.003 -0.034,0.005 -0.052,0.005c-0.048,0 -0.085,-0.013 -0.11,-0.038c-0.026,-0.025 -0.038,-0.063 -0.038,-0.113l0,-0.282l-0.086,0l0,-0.09l0.086,0l0,-0.116l0.116,-0.035l0,0.151l0.123,0l0,0.09l-0.123,0l0,0.273c0,0.025 0.005,0.044 0.014,0.055c0.009,0.011 0.024,0.017 0.043,0.017c0.009,0 0.018,-0.001 0.027,-0.003c0.008,-0.002 0.016,-0.005 0.023,-0.008l0.025,0.082Z" style="fill:#1a82c4;fill-rule:nonzero;"/></g><g transform="matrix(207.030286,0,0,207.030286,1985.116611,1302.418326)"><path d="M0.513,-0.226l-0.35,0c0.002,0.049 0.016,0.085 0.042,0.111c0.026,0.025 0.063,0.038 0.109,0.038c0.019,0 0.04,-0.004 0.065,-0.012c0.025,-0.008 0.049,-0.02 0.073,-0.037l0.052,0.072c-0.032,0.023 -0.064,0.039 -0.097,0.05c-0.033,0.01 -0.069,0.016 -0.109,0.016c-0.079,0 -0.141,-0.023 -0.186,-0.069c-0.044,-0.046 -0.067,-0.11 -0.067,-0.193c0,-0.082 0.023,-0.148 0.069,-0.199c0.046,-0.051 0.105,-0.076 0.176,-0.076c0.069,0 0.123,0.022 0.162,0.065c0.039,0.043 0.059,0.104 0.059,0.183l0,0.051Zm-0.112,-0.08c-0,-0.044 -0.01,-0.077 -0.029,-0.1c-0.019,-0.022 -0.046,-0.033 -0.082,-0.033c-0.033,0 -0.061,0.012 -0.084,0.036c-0.023,0.024 -0.037,0.056 -0.043,0.097l0.238,0Z" style="fill:#1a82c4;fill-rule:nonzero;"/></g><g transform="matrix(207.030286,0,0,207.030286,2099.2461,1302.418326)"><path d="M0.845,-0l-0.116,-0l0,-0.294c0,-0.048 -0.008,-0.083 -0.024,-0.105c-0.016,-0.022 -0.041,-0.033 -0.076,-0.033c-0.031,0 -0.057,0.014 -0.078,0.041c-0.021,0.028 -0.031,0.061 -0.031,0.101l0,0.29l-0.116,-0l0,-0.3c0,-0.044 -0.008,-0.077 -0.025,-0.099c-0.017,-0.022 -0.042,-0.033 -0.075,-0.033c-0.032,0 -0.058,0.013 -0.078,0.039c-0.02,0.026 -0.03,0.061 -0.03,0.104l0,0.289l-0.116,-0l0,-0.512l0.116,0l0,0.081l0.002,0c0.017,-0.029 0.04,-0.052 0.068,-0.068c0.028,-0.016 0.059,-0.024 0.094,-0.024c0.036,0 0.066,0.009 0.092,0.027c0.025,0.018 0.044,0.043 0.055,0.075c0.019,-0.034 0.043,-0.059 0.072,-0.076c0.028,-0.017 0.062,-0.025 0.099,-0.025c0.056,0 0.098,0.017 0.126,0.052c0.028,0.035 0.042,0.086 0.042,0.155l0,0.317Z" style="fill:#1a82c4;fill-rule:nonzero;"/></g><g transform="matrix(207.030286,0,0,207.030286,2288.181454,1302.418326)"><path d="M0.471,-0l-0.112,-0l0,-0.078l-0.002,0c-0.017,0.03 -0.039,0.052 -0.065,0.067c-0.026,0.015 -0.055,0.022 -0.089,0.022c-0.047,0 -0.086,-0.014 -0.116,-0.041c-0.03,-0.028 -0.046,-0.065 -0.046,-0.112c0,-0.046 0.015,-0.083 0.046,-0.112c0.03,-0.029 0.076,-0.048 0.136,-0.057l0.136,-0.018l0,-0.011c0,-0.034 -0.009,-0.06 -0.027,-0.076c-0.018,-0.016 -0.043,-0.024 -0.074,-0.024c-0.024,0 -0.049,0.004 -0.074,0.013c-0.025,0.009 -0.049,0.022 -0.073,0.04l-0.05,-0.07c0.031,-0.024 0.063,-0.041 0.097,-0.053c0.034,-0.011 0.07,-0.017 0.11,-0.017c0.068,0 0.119,0.017 0.153,0.051c0.033,0.034 0.05,0.085 0.05,0.153l0,0.321Zm-0.112,-0.209l0,-0.043l-0.11,0.015c-0.033,0.005 -0.057,0.014 -0.073,0.026c-0.016,0.013 -0.024,0.032 -0.024,0.057c0,0.024 0.008,0.044 0.023,0.058c0.015,0.014 0.035,0.021 0.06,0.021c0.037,0 0.068,-0.013 0.09,-0.038c0.023,-0.025 0.034,-0.057 0.034,-0.096Z" style="fill:#1a82c4;fill-rule:nonzero;"/></g><g transform="matrix(207.030286,0,0,207.030286,2400.188074,1302.418326)"></g><g transform="matrix(207.030286,0,0,207.030286,2457.101185,1302.418326)"><path d="M0.427,-0.08c-0.018,0.031 -0.042,0.054 -0.07,0.069c-0.028,0.015 -0.061,0.023 -0.099,0.023c-0.064,0 -0.115,-0.023 -0.154,-0.068c-0.039,-0.046 -0.058,-0.108 -0.058,-0.188c0,-0.085 0.021,-0.153 0.064,-0.204c0.043,-0.051 0.1,-0.077 0.17,-0.077c0.034,0 0.064,0.006 0.088,0.019c0.024,0.013 0.044,0.032 0.059,0.058l0.002,0l0,-0.294l0.116,0l0,0.74l-0.116,-0l0,-0.08l-0.002,0Zm-0.263,-0.169c0,0.053 0.012,0.094 0.036,0.124c0.024,0.03 0.056,0.045 0.096,0.045c0.04,0 0.072,-0.015 0.097,-0.045c0.025,-0.03 0.037,-0.068 0.037,-0.115l0,-0.059c0,-0.038 -0.012,-0.07 -0.036,-0.095c-0.024,-0.026 -0.054,-0.038 -0.091,-0.038c-0.043,0 -0.077,0.016 -0.102,0.049c-0.025,0.033 -0.037,0.078 -0.037,0.135Z" style="fill:#1a82c4;fill-rule:nonzero;"/></g><g transform="matrix(207.030286,0,0,207.030286,2586.090758,1302.418326)"><path d="M0.513,-0.226l-0.35,0c0.002,0.049 0.016,0.085 0.042,0.111c0.026,0.025 0.063,0.038 0.109,0.038c0.019,0 0.04,-0.004 0.065,-0.012c0.025,-0.008 0.049,-0.02 0.073,-0.037l0.052,0.072c-0.032,0.023 -0.064,0.039 -0.097,0.05c-0.033,0.01 -0.069,0.016 -0.109,0.016c-0.079,0 -0.141,-0.023 -0.186,-0.069c-0.044,-0.046 -0.067,-0.11 -0.067,-0.193c0,-0.082 0.023,-0.148 0.069,-0.199c0.046,-0.051 0.105,-0.076 0.176,-0.076c0.069,0 0.123,0.022 0.162,0.065c0.039,0.043 0.059,0.104 0.059,0.183l0,0.051Zm-0.112,-0.08c-0,-0.044 -0.01,-0.077 -0.029,-0.1c-0.019,-0.022 -0.046,-0.033 -0.082,-0.033c-0.033,0 -0.061,0.012 -0.084,0.036c-0.023,0.024 -0.037,0.056 -0.043,0.097l0.238,0Z" style="fill:#1a82c4;fill-rule:nonzero;"/></g><g transform="matrix(207.030286,0,0,207.030286,2700.220247,1302.418326)"></g><g transform="matrix(207.030286,0,0,207.030286,2757.133358,1302.418326)"><path d="M0.602,-0.036c-0.035,0.017 -0.07,0.029 -0.103,0.037c-0.034,0.008 -0.07,0.011 -0.109,0.011c-0.107,0 -0.191,-0.031 -0.252,-0.094c-0.061,-0.063 -0.091,-0.148 -0.091,-0.257c0,-0.11 0.033,-0.2 0.1,-0.269c0.067,-0.069 0.155,-0.104 0.263,-0.104c0.036,0 0.068,0.003 0.098,0.009c0.03,0.006 0.06,0.015 0.09,0.028l-0.039,0.097c-0.024,-0.011 -0.048,-0.018 -0.072,-0.023c-0.023,-0.005 -0.049,-0.007 -0.076,-0.007c-0.07,0 -0.128,0.023 -0.173,0.07c-0.045,0.047 -0.068,0.11 -0.068,0.19c0,0.079 0.021,0.141 0.062,0.186c0.042,0.045 0.098,0.068 0.168,0.068c0.023,0 0.048,-0.003 0.074,-0.009c0.026,-0.006 0.053,-0.016 0.08,-0.03l0.045,0.096Z" style="fill:#1a82c4;fill-rule:nonzero;"/></g><g transform="matrix(207.030286,0,0,207.030286,2888.650156,1302.418326)"><path d="M0.307,0.012c-0.08,0 -0.144,-0.024 -0.191,-0.072c-0.047,-0.048 -0.07,-0.112 -0.07,-0.193c0,-0.085 0.025,-0.152 0.073,-0.2c0.048,-0.048 0.114,-0.072 0.197,-0.072c0.08,-0 0.143,0.023 0.188,0.071c0.045,0.047 0.068,0.112 0.068,0.193c0,0.083 -0.024,0.15 -0.072,0.199c-0.048,0.049 -0.113,0.074 -0.194,0.074Zm0.005,-0.092c0.046,0 0.082,-0.015 0.106,-0.046c0.024,-0.03 0.036,-0.074 0.036,-0.132c0,-0.057 -0.012,-0.1 -0.037,-0.13c-0.024,-0.03 -0.06,-0.045 -0.106,-0.045c-0.046,0 -0.082,0.016 -0.108,0.047c-0.026,0.031 -0.039,0.075 -0.039,0.131c0,0.056 0.013,0.099 0.039,0.129c0.026,0.03 0.062,0.045 0.109,0.045Z" style="fill:#1a82c4;fill-rule:nonzero;"/></g><g transform="matrix(207.030286,0,0,207.030286,3016.729928,1302.418326)"><path d="M0.535,-0l-0.116,-0l0,-0.289c0,-0.048 -0.009,-0.083 -0.026,-0.107c-0.017,-0.024 -0.043,-0.036 -0.078,-0.036c-0.035,0 -0.064,0.013 -0.086,0.04c-0.023,0.026 -0.034,0.06 -0.034,0.1l0,0.292l-0.116,-0l0,-0.512l0.116,0l0,0.083l0.002,0c0.019,-0.032 0.043,-0.056 0.07,-0.072c0.028,-0.016 0.06,-0.024 0.096,-0.024c0.056,0 0.099,0.018 0.128,0.054c0.029,0.036 0.044,0.088 0.044,0.158l0,0.313Z" style="fill:#1a82c4;fill-rule:nonzero;"/></g><g transform="matrix(207.030286,0,0,207.030286,3141.574852,1302.418326)"><path d="M0.359,-0.007c-0.015,0.006 -0.03,0.011 -0.047,0.014c-0.016,0.003 -0.034,0.005 -0.052,0.005c-0.048,0 -0.085,-0.013 -0.11,-0.038c-0.026,-0.025 -0.038,-0.063 -0.038,-0.113l0,-0.282l-0.086,0l0,-0.09l0.086,0l0,-0.116l0.116,-0.035l0,0.151l0.123,0l0,0.09l-0.123,0l0,0.273c0,0.025 0.005,0.044 0.014,0.055c0.009,0.011 0.024,0.017 0.043,0.017c0.009,0 0.018,-0.001 0.027,-0.003c0.008,-0.002 0.016,-0.005 0.023,-0.008l0.025,0.082Z" style="fill:#1a82c4;fill-rule:nonzero;"/></g><g transform="matrix(207.030286,0,0,207.030286,3220.222099,1302.418326)"><path d="M0.363,-0.414c-0.007,-0.002 -0.013,-0.003 -0.019,-0.004c-0.006,-0.001 -0.013,-0.001 -0.021,-0.001c-0.041,0 -0.073,0.015 -0.095,0.046c-0.022,0.031 -0.033,0.071 -0.033,0.121l0,0.253l-0.116,-0l0,-0.512l0.116,0l0,0.099l0.002,0c0.012,-0.035 0.03,-0.062 0.053,-0.08c0.023,-0.018 0.051,-0.027 0.083,-0.027c0.009,0 0.017,0 0.025,0.001c0.007,0.001 0.014,0.003 0.022,0.005l-0.015,0.101Z" style="fill:#1a82c4;fill-rule:nonzero;"/></g><g transform="matrix(207.030286,0,0,207.030286,3300.486771,1302.418326)"><path d="M0.307,0.012c-0.08,0 -0.144,-0.024 -0.191,-0.072c-0.047,-0.048 -0.07,-0.112 -0.07,-0.193c0,-0.085 0.025,-0.152 0.073,-0.2c0.048,-0.048 0.114,-0.072 0.197,-0.072c0.08,-0 0.143,0.023 0.188,0.071c0.045,0.047 0.068,0.112 0.068,0.193c0,0.083 -0.024,0.15 -0.072,0.199c-0.048,0.049 -0.113,0.074 -0.194,0.074Zm0.005,-0.092c0.046,0 0.082,-0.015 0.106,-0.046c0.024,-0.03 0.036,-0.074 0.036,-0.132c0,-0.057 -0.012,-0.1 -0.037,-0.13c-0.024,-0.03 -0.06,-0.045 -0.106,-0.045c-0.046,0 -0.082,0.016 -0.108,0.047c-0.026,0.031 -0.039,0.075 -0.039,0.131c0,0.056 0.013,0.099 0.039,0.129c0.026,0.03 0.062,0.045 0.109,0.045Z" style="fill:#1a82c4;fill-rule:nonzero;"/></g><g transform="matrix(207.030286,0,0,207.030286,3428.566543,1302.418326)"><rect x="0.078" y="-0.74" width="0.116" height="0.74" style="fill:#1a82c4;fill-rule:nonzero;"/></g><g transform="matrix(207.030286,0,0,207.030286,3484.974209,1302.418326)"></g><g transform="matrix(207.030286,0,0,207.030286,3541.88732,1302.418326)"><path d="M0.427,-0.08c-0.018,0.031 -0.042,0.054 -0.07,0.069c-0.028,0.015 -0.061,0.023 -0.099,0.023c-0.064,0 -0.115,-0.023 -0.154,-0.068c-0.039,-0.046 -0.058,-0.108 -0.058,-0.188c0,-0.085 0.021,-0.153 0.064,-0.204c0.043,-0.051 0.1,-0.077 0.17,-0.077c0.034,0 0.064,0.006 0.088,0.019c0.024,0.013 0.044,0.032 0.059,0.058l0.002,0l0,-0.294l0.116,0l0,0.74l-0.116,-0l0,-0.08l-0.002,0Zm-0.263,-0.169c0,0.053 0.012,0.094 0.036,0.124c0.024,0.03 0.056,0.045 0.096,0.045c0.04,0 0.072,-0.015 0.097,-0.045c0.025,-0.03 0.037,-0.068 0.037,-0.115l0,-0.059c0,-0.038 -0.012,-0.07 -0.036,-0.095c-0.024,-0.026 -0.054,-0.038 -0.091,-0.038c-0.043,0 -0.077,0.016 -0.102,0.049c-0.025,0.033 -0.037,0.078 -0.037,0.135Z" style="fill:#1a82c4;fill-rule:nonzero;"/></g><g transform="matrix(207.030286,0,0,207.030286,3670.876893,1302.418326)"><path d="M0.513,-0.226l-0.35,0c0.002,0.049 0.016,0.085 0.042,0.111c0.026,0.025 0.063,0.038 0.109,0.038c0.019,0 0.04,-0.004 0.065,-0.012c0.025,-0.008 0.049,-0.02 0.073,-0.037l0.052,0.072c-0.032,0.023 -0.064,0.039 -0.097,0.05c-0.033,0.01 -0.069,0.016 -0.109,0.016c-0.079,0 -0.141,-0.023 -0.186,-0.069c-0.044,-0.046 -0.067,-0.11 -0.067,-0.193c0,-0.082 0.023,-0.148 0.069,-0.199c0.046,-0.051 0.105,-0.076 0.176,-0.076c0.069,0 0.123,0.022 0.162,0.065c0.039,0.043 0.059,0.104 0.059,0.183l0,0.051Zm-0.112,-0.08c-0,-0.044 -0.01,-0.077 -0.029,-0.1c-0.019,-0.022 -0.046,-0.033 -0.082,-0.033c-0.033,0 -0.061,0.012 -0.084,0.036c-0.023,0.024 -0.037,0.056 -0.043,0.097l0.238,0Z" style="fill:#1a82c4;fill-rule:nonzero;"/></g><g transform="matrix(207.030286,0,0,207.030286,3785.006382,1302.418326)"></g><g transform="matrix(207.030286,0,0,207.030286,3841.919493,1302.418326)"><path d="M0.21,-0.244l0,0.244l-0.119,-0l0,-0.7l0.219,0c0.081,0 0.143,0.019 0.186,0.056c0.043,0.038 0.064,0.092 0.064,0.164c0,0.07 -0.024,0.127 -0.072,0.17c-0.048,0.044 -0.113,0.066 -0.194,0.066l-0.084,0Zm0,-0.36l0,0.263l0.074,0c0.05,0 0.087,-0.011 0.113,-0.034c0.026,-0.023 0.038,-0.056 0.038,-0.1c0,-0.043 -0.012,-0.075 -0.036,-0.097c-0.024,-0.021 -0.061,-0.032 -0.109,-0.032l-0.08,0Z" style="fill:#1a82c4;fill-rule:nonzero;"/></g><g transform="matrix(207.030286,0,0,207.030286,3957.666406,1302.418326)"><path d="M0.513,-0.226l-0.35,0c0.002,0.049 0.016,0.085 0.042,0.111c0.026,0.025 0.063,0.038 0.109,0.038c0.019,0 0.04,-0.004 0.065,-0.012c0.025,-0.008 0.049,-0.02 0.073,-0.037l0.052,0.072c-0.032,0.023 -0.064,0.039 -0.097,0.05c-0.033,0.01 -0.069,0.016 -0.109,0.016c-0.079,0 -0.141,-0.023 -0.186,-0.069c-0.044,-0.046 -0.067,-0.11 -0.067,-0.193c0,-0.082 0.023,-0.148 0.069,-0.199c0.046,-0.051 0.105,-0.076 0.176,-0.076c0.069,0 0.123,0.022 0.162,0.065c0.039,0.043 0.059,0.104 0.059,0.183l0,0.051Zm-0.112,-0.08c-0,-0.044 -0.01,-0.077 -0.029,-0.1c-0.019,-0.022 -0.046,-0.033 -0.082,-0.033c-0.033,0 -0.061,0.012 -0.084,0.036c-0.023,0.024 -0.037,0.056 -0.043,0.097l0.238,0Z" style="fill:#1a82c4;fill-rule:nonzero;"/></g><g transform="matrix(207.030286,0,0,207.030286,4071.795895,1302.418326)"><path d="M0.032,-0.04l0.05,-0.082c0.02,0.014 0.041,0.025 0.063,0.033c0.022,0.008 0.047,0.013 0.074,0.013c0.029,0 0.051,-0.005 0.067,-0.016c0.016,-0.01 0.024,-0.026 0.024,-0.047c0,-0.017 -0.007,-0.031 -0.02,-0.042c-0.013,-0.011 -0.036,-0.02 -0.068,-0.028c-0.064,-0.015 -0.108,-0.035 -0.134,-0.059c-0.026,-0.025 -0.038,-0.057 -0.038,-0.098c0,-0.047 0.018,-0.085 0.055,-0.114c0.036,-0.029 0.084,-0.044 0.142,-0.044c0.029,0 0.056,0.004 0.082,0.011c0.026,0.007 0.051,0.019 0.076,0.035l-0.046,0.079c-0.022,-0.014 -0.042,-0.023 -0.06,-0.029c-0.018,-0.006 -0.037,-0.009 -0.056,-0.009c-0.028,0 -0.049,0.005 -0.065,0.016c-0.015,0.01 -0.023,0.025 -0.023,0.043c0,0.019 0.007,0.033 0.022,0.042c0.015,0.009 0.041,0.018 0.077,0.027c0.056,0.013 0.096,0.032 0.122,0.057c0.026,0.025 0.039,0.059 0.039,0.101c0,0.049 -0.018,0.089 -0.054,0.118c-0.036,0.029 -0.085,0.044 -0.147,0.044c-0.033,0 -0.065,-0.004 -0.095,-0.013c-0.03,-0.009 -0.059,-0.022 -0.087,-0.039Z" style="fill:#1a82c4;fill-rule:nonzero;"/></g><g transform="matrix(207.030286,0,0,207.030286,4164.999959,1302.418326)"><path d="M0.307,0.012c-0.08,0 -0.144,-0.024 -0.191,-0.072c-0.047,-0.048 -0.07,-0.112 -0.07,-0.193c0,-0.085 0.025,-0.152 0.073,-0.2c0.048,-0.048 0.114,-0.072 0.197,-0.072c0.08,-0 0.143,0.023 0.188,0.071c0.045,0.047 0.068,0.112 0.068,0.193c0,0.083 -0.024,0.15 -0.072,0.199c-0.048,0.049 -0.113,0.074 -0.194,0.074Zm0.005,-0.092c0.046,0 0.082,-0.015 0.106,-0.046c0.024,-0.03 0.036,-0.074 0.036,-0.132c0,-0.057 -0.012,-0.1 -0.037,-0.13c-0.024,-0.03 -0.06,-0.045 -0.106,-0.045c-0.046,0 -0.082,0.016 -0.108,0.047c-0.026,0.031 -0.039,0.075 -0.039,0.131c0,0.056 0.013,0.099 0.039,0.129c0.026,0.03 0.062,0.045 0.109,0.045Z" style="fill:#1a82c4;fill-rule:nonzero;"/></g><g transform="matrix(207.030286,0,0,207.030286,4293.079731,1302.418326)"></g></g></svg>