<?xml version="1.0" encoding="UTF-8" standalone="no"?><!DOCTYPE svg PUBLIC "-//W3C//DTD SVG 1.1//EN" "http://www.w3.org/Graphics/SVG/1.1/DTD/svg11.dtd"><svg width="100%" height="100%" viewBox="0 0 1913 1843" version="1.1" xmlns="http://www.w3.org/2000/svg" xmlns:xlink="http://www.w3.org/1999/xlink" xml:space="preserve" xmlns:serif="http://www.serif.com/" style="fill-rule:evenodd;clip-rule:evenodd;stroke-linejoin:round;stroke-miterlimit:2;"><g id="Captura-de-pantalla-2026-05-13-132932.png" serif:id="Captura de pantalla 2026-05-13 132932.png"><path d="M578.777,1134.554l3.584,0.128c-0.037,2.845 -2.784,12.036 -2.821,14.88c-17.313,110.496 -13.007,111.96 -15.781,114.118c-136.855,-0.251 -308.061,23.845 -423.802,-143.297c-90.76,-131.067 -72.297,-299.298 17.463,-405.599c125.837,-149.025 271.781,-118.39 456.337,-120.633c12.143,-0.148 6.326,-8.161 7.924,-212.9c2.049,-262.393 246.133,-387.122 437.097,-322.588c267.354,90.349 228.345,384.351 227.852,417.622c-0.075,5.046 -32.734,13.136 -35.709,13.873c-44.159,10.939 -43.6,11.396 -87.328,22.77c-9.626,2.504 -4.695,-5.757 -6.09,-124.179c-2.743,-232.855 -262.115,-284.329 -370.408,-129.416c-34.176,48.889 -35.354,124.615 -34.488,200.663c0.899,78.897 4.345,158.192 -4.98,211.025c-11.415,64.677 -61.329,49.863 -306.377,51.128c-240.748,1.243 -254.082,210.361 -211.843,296.28c67.284,136.864 193.019,116.434 349.368,116.122Z" style="fill:#1a82c4;"/><path d="M760.91,1555.288c1.455,2.974 4.031,8.846 7.969,15.804c4.251,7.513 9.828,16.033 9.951,16.201c127.288,174.179 302.9,88.012 354.577,-11.213c46.586,-89.452 11.888,-335.071 24.593,-385.01c18.705,-73.519 88.096,-54.302 335.751,-56.223c128.413,-0.996 199.559,-101.322 206.473,-188.693c10.739,-135.712 -96.752,-188.067 -91.521,-197.426c57.491,-102.863 51.34,-114.835 59.836,-109.582c240.486,148.698 199.538,467.491 -7.839,583.665c-144.162,80.76 -373.583,16.894 -373.65,48.463c-0.551,255.891 23.087,373.905 -175.938,505.328c-15.993,4.642 -11.793,1.794 -15.516,3.454c-99.451,44.375 -247.199,-16.371 -310.972,-160.024c-7.244,-16.317 -17.074,-37.054 -23.712,-64.744Z" style="fill:#00c03a;"/><path d="M1383.47,685.474c0.34,-0.091 -3.003,3.133 -7.942,6.944c-61.287,47.29 -498.039,376.05 -564.414,548.665c-5.776,7.493 -56.656,104.832 -62.629,206.862c-2.28,38.944 12.468,110.095 14.487,113.7c2.55,11.156 13.123,35.07 15.064,40.318c2.924,7.903 4.371,10.651 8.724,20.456c63.773,143.654 210.282,197.835 310.816,155.97c1.326,-0.552 10.459,-4.281 10.459,-4.281c0,0 9.012,-4.347 11.141,-5.459c10.166,-5.308 11.943,-5.759 11.943,-5.759c0,0 -3.364,2.356 -8.916,6.61c-3.973,3.044 -8.288,5.322 -10.125,6.457c-0.88,0.544 -9.08,5.416 -13.545,7.329c-255.713,109.526 -477.253,-82.909 -476.692,-299.543c0.226,-87.269 32.454,-347.794 457.471,-619.085c215.079,-137.286 232.503,-141.925 304.157,-179.183Z" style="fill:#1a82c4;"/><circle cx="1474.813" cy="282.638" r="106.935" style="fill:#00c03a;"/><path d="M1383.519,685.44c-228.27,90.62 -694.453,232.394 -805.275,678.199c-1.257,5.058 -13.064,67.792 -12.336,41.449c0.41,-14.857 -1.432,-23.701 -1.792,-32.134c-0.688,-16.103 -0.587,-26.224 -0.955,-42.374c-0.532,-23.357 0.519,-61.923 0.61,-67.381c-0.571,-4.729 3.858,-58.081 14.396,-115.946c0.76,-4.173 1.724,-7.549 2.498,-11.757c0,-0 2.533,-8.185 10.102,-36.88c143.806,-545.14 626.047,-495.005 947.35,-648.583c127.823,-61.097 159.759,-128.907 155.54,-108.774c-10.772,51.411 -17.3,95.818 -33.53,149.664c-199.275,661.136 -823.136,735.785 -849.013,750.159c64.092,-166.676 394.041,-438.779 529.1,-525.913c9.4,-6.065 20.123,-12.718 28.861,-18.648c0.915,-0.621 1.808,-1.234 2.676,-1.838c5.024,-3.495 9.192,-6.673 11.767,-9.243Z" style="fill:#00c03a;"/></g></svg>