<?xml version="1.0" encoding="UTF-8" standalone="no"?><!DOCTYPE svg PUBLIC "-//W3C//DTD SVG 1.1//EN" "http://www.w3.org/Graphics/SVG/1.1/DTD/svg11.dtd"><svg width="100%" height="100%" viewBox="0 0 1913 1843" version="1.1" xmlns="http://www.w3.org/2000/svg" xmlns:xlink="http://www.w3.org/1999/xlink" xml:space="preserve" xmlns:serif="http://www.serif.com/" style="fill-rule:evenodd;clip-rule:evenodd;stroke-linejoin:round;stroke-miterlimit:2;"><path d="M1912.5,294.296l0,1253.907c0,162.427 -131.87,294.296 -294.296,294.296l-1323.907,0c-162.427,0 -294.296,-131.87 -294.296,-294.296l0,-1253.907c0,-162.427 131.87,-294.296 294.296,-294.296l1323.907,0c162.427,0 294.296,131.87 294.296,294.296Z" style="fill:#1a82c4;"/><g id="Captura-de-pantalla-2026-05-13-132932.png" serif:id="Captura de pantalla 2026-05-13 132932.png"><path d="M644.237,1091.419l2.959,0.106c-0.031,2.349 -2.298,9.937 -2.329,12.285c-14.294,91.227 -10.739,92.435 -13.029,94.217c-112.989,-0.207 -254.339,19.687 -349.896,-118.307c-74.932,-108.21 -59.689,-247.104 14.417,-334.866c103.892,-123.037 224.385,-97.744 376.757,-99.596c10.026,-0.122 5.222,-6.738 6.542,-175.772c1.692,-216.634 203.21,-319.612 360.872,-266.332c220.73,74.593 188.524,317.324 188.117,344.793c-0.062,4.166 -27.025,10.846 -29.481,11.454c-36.458,9.031 -35.997,9.409 -72.099,18.799c-7.947,2.067 -3.876,-4.753 -5.028,-102.523c-2.264,-192.247 -216.405,-234.745 -305.812,-106.847c-28.216,40.363 -29.189,102.883 -28.474,165.67c0.742,65.138 3.587,130.605 -4.111,174.224c-9.425,53.398 -50.634,41.167 -252.948,42.212c-198.764,1.026 -209.772,173.676 -174.899,244.612c55.551,112.996 159.358,96.129 288.441,95.872Z" style="fill:#fff;"/><path d="M794.608,1438.78c1.202,2.456 3.328,7.303 6.579,13.048c3.509,6.202 8.114,13.237 8.215,13.375c105.09,143.804 250.077,72.664 292.742,-9.258c38.462,-73.852 9.815,-276.638 20.305,-317.868c15.443,-60.698 72.733,-44.832 277.199,-46.418c106.019,-0.822 164.758,-83.652 170.466,-155.787c8.866,-112.045 -79.88,-155.27 -75.561,-162.997c47.465,-84.924 42.387,-94.809 49.401,-90.472c198.548,122.767 164.741,385.965 -6.472,481.879c-119.021,66.676 -308.433,13.948 -308.49,40.012c-0.455,211.266 19.061,308.7 -145.256,417.204c-13.204,3.832 -9.737,1.481 -12.81,2.852c-82.108,36.637 -204.09,-13.516 -256.742,-132.118c-5.98,-13.471 -14.096,-30.592 -19.577,-53.453Z" style="fill:#fff;"/><path d="M1308.6,720.653c0.281,-0.076 -2.479,2.587 -6.557,5.733c-50.599,39.043 -411.186,310.47 -465.986,452.983c-4.769,6.187 -46.776,86.55 -51.707,170.788c-1.882,32.152 10.294,90.896 11.96,93.872c2.105,9.211 10.834,28.954 12.437,33.287c2.414,6.525 3.609,8.794 7.202,16.889c52.652,118.602 173.611,163.335 256.613,128.77c1.095,-0.456 8.635,-3.535 8.635,-3.535c0,0 7.44,-3.589 9.198,-4.507c8.393,-4.383 9.861,-4.755 9.861,-4.755c0,0 -2.777,1.945 -7.361,5.457c-3.28,2.513 -6.843,4.394 -8.36,5.331c-0.727,0.449 -7.497,4.472 -11.183,6.051c-211.119,90.426 -394.025,-68.451 -393.561,-247.306c0.187,-72.05 26.794,-287.142 377.693,-511.123c177.571,-113.345 191.957,-117.174 251.115,-147.935Z" style="fill:#fff;"/><circle cx="1384.014" cy="388.068" r="88.287" style="fill:#fff;"/><path d="M1308.641,720.625c-188.462,74.817 -573.347,191.866 -664.843,559.928c-1.038,4.176 -10.785,55.97 -10.185,34.22c0.339,-12.266 -1.182,-19.568 -1.48,-26.53c-0.568,-13.295 -0.485,-21.651 -0.788,-34.984c-0.439,-19.284 0.429,-51.124 0.504,-55.63c-0.471,-3.904 3.185,-47.952 11.886,-95.726c0.627,-3.445 1.424,-6.233 2.062,-9.706c0,-0 2.091,-6.758 8.341,-30.448c118.728,-450.073 516.871,-408.681 782.142,-535.476c105.532,-50.443 131.898,-106.427 128.415,-89.805c-8.894,42.446 -14.283,79.108 -27.683,123.564c-164.524,545.841 -679.589,607.471 -700.954,619.338c52.915,-137.61 325.324,-362.26 436.83,-434.199c7.761,-5.007 16.613,-10.5 23.828,-15.396c0.755,-0.513 1.493,-1.019 2.209,-1.517c4.148,-2.885 7.589,-5.51 9.715,-7.631Z" style="fill:#fff;"/></g></svg>